Hello world from midi_handler
TPQ: 96
TRACKS: 7

Track 0 has 3 events
0 255 240 Meta 255 88 4 4 2 96 8 
0 255 240 Meta Tempo 255 81 3 7 161 32 
0 255 240 Meta 255 47 0 

Track 1 has 571 events
0 176 176 Controller 176 0 0 
0 192 192 Timbre 192 58 
0 255 240 Meta 255 88 4 4 2 96 8 
0 255 240 Meta Tempo 255 81 3 7 161 32 
0 144 144 Note On 144 67 64 
0 144 144 Note On 144 64 64 
64 128 128 Note Off 128 67 64 
64 128 128 Note Off 128 64 64 
96 144 144 Note On 144 60 64 
160 128 128 Note Off 128 60 64 
192 144 144 Note On 144 67 64 
192 144 144 Note On 144 64 64 
256 128 128 Note Off 128 67 64 
256 128 128 Note Off 128 64 64 
288 144 144 Note On 144 60 64 
352 128 128 Note Off 128 60 64 
384 144 144 Note On 144 67 64 
384 144 144 Note On 144 64 64 
384 144 144 Note On 144 60 64 
416 128 128 Note Off 128 67 64 
416 128 128 Note Off 128 64 64 
432 144 144 Note On 144 65 64 
464 128 128 Note Off 128 65 64 
480 144 144 Note On 144 64 64 
512 128 128 Note Off 128 60 64 
544 128 128 Note Off 128 64 64 
576 144 144 Note On 144 67 64 
576 144 144 Note On 144 65 64 
576 144 144 Note On 144 59 64 
608 128 128 Note Off 128 67 64 
624 144 144 Note On 144 69 64 
656 128 128 Note Off 128 69 64 
672 144 144 Note On 144 71 64 
704 128 128 Note Off 128 65 64 
704 128 128 Note Off 128 59 64 
736 128 128 Note Off 128 71 64 
768 144 144 Note On 144 79 64 
768 144 144 Note On 144 76 64 
832 128 128 Note Off 128 79 64 
832 128 128 Note Off 128 76 64 
864 144 144 Note On 144 72 64 
928 128 128 Note Off 128 72 64 
960 144 144 Note On 144 79 64 
960 144 144 Note On 144 76 64 
1024 128 128 Note Off 128 79 64 
1024 128 128 Note Off 128 76 64 
1056 144 144 Note On 144 72 64 
1120 128 128 Note Off 128 72 64 
1152 144 144 Note On 144 79 64 
1152 144 144 Note On 144 76 64 
1152 144 144 Note On 144 72 64 
1184 128 128 Note Off 128 79 64 
1184 128 128 Note Off 128 76 64 
1200 144 144 Note On 144 77 64 
1232 128 128 Note Off 128 77 64 
1248 144 144 Note On 144 76 64 
1280 128 128 Note Off 128 72 64 
1312 128 128 Note Off 128 76 64 
1344 144 144 Note On 144 79 64 
1344 144 144 Note On 144 77 64 
1344 144 144 Note On 144 71 64 
1376 128 128 Note Off 128 79 64 
1392 144 144 Note On 144 81 64 
1424 128 128 Note Off 128 81 64 
1440 144 144 Note On 144 83 64 
1472 128 128 Note Off 128 77 64 
1472 128 128 Note Off 128 71 64 
1504 128 128 Note Off 128 83 64 
1536 144 144 Note On 144 67 64 
1536 144 144 Note On 144 64 64 
1600 128 128 Note Off 128 67 64 
1600 128 128 Note Off 128 64 64 
1632 144 144 Note On 144 60 64 
1696 128 128 Note Off 128 60 64 
1728 144 144 Note On 144 67 64 
1728 144 144 Note On 144 64 64 
1792 128 128 Note Off 128 67 64 
1792 128 128 Note Off 128 64 64 
1824 144 144 Note On 144 60 64 
1888 128 128 Note Off 128 60 64 
1920 144 144 Note On 144 67 64 
1920 144 144 Note On 144 60 64 
1952 128 128 Note Off 128 67 64 
1968 144 144 Note On 144 65 64 
2000 128 128 Note Off 128 65 64 
2016 144 144 Note On 144 64 64 
2048 128 128 Note Off 128 60 64 
2080 128 128 Note Off 128 64 64 
2112 144 144 Note On 144 65 64 
2208 144 144 Note On 144 60 64 
2208 144 144 Note On 144 57 64 
2240 128 128 Note Off 128 65 64 
2272 128 128 Note Off 128 60 64 
2272 128 128 Note Off 128 57 64 
2304 144 144 Note On 144 65 64 
2304 144 144 Note On 144 60 64 
2304 144 144 Note On 144 57 64 
2368 128 128 Note Off 128 65 64 
2400 144 144 Note On 144 64 64 
2432 128 128 Note Off 128 60 64 
2432 128 128 Note Off 128 57 64 
2432 128 128 Note Off 128 64 64 
2448 144 144 Note On 144 62 64 
2480 128 128 Note Off 128 62 64 
2496 144 144 Note On 144 67 64 
2496 144 144 Note On 144 60 64 
2560 128 128 Note Off 128 67 64 
2592 144 144 Note On 144 65 64 
2624 128 128 Note Off 128 60 64 
2656 128 128 Note Off 128 65 64 
2688 144 144 Note On 144 64 64 
2688 144 144 Note On 144 57 64 
2720 128 128 Note Off 128 64 64 
2736 144 144 Note On 144 62 64 
2768 128 128 Note Off 128 62 64 
2784 144 144 Note On 144 60 64 
2816 128 128 Note Off 128 57 64 
2848 128 128 Note Off 128 60 64 
2880 144 144 Note On 144 62 64 
2976 144 144 Note On 144 59 64 
2976 144 144 Note On 144 55 64 
3008 128 128 Note Off 128 62 64 
3040 128 128 Note Off 128 59 64 
3040 128 128 Note Off 128 55 64 
3072 144 144 Note On 144 67 64 
3072 144 144 Note On 144 64 64 
3136 128 128 Note Off 128 67 64 
3136 128 128 Note Off 128 64 64 
3168 144 144 Note On 144 60 64 
3232 128 128 Note Off 128 60 64 
3264 144 144 Note On 144 67 64 
3264 144 144 Note On 144 64 64 
3328 128 128 Note Off 128 67 64 
3328 128 128 Note Off 128 64 64 
3360 144 144 Note On 144 60 64 
3424 128 128 Note Off 128 60 64 
3456 144 144 Note On 144 67 64 
3456 144 144 Note On 144 60 64 
3488 128 128 Note Off 128 67 64 
3504 144 144 Note On 144 65 64 
3536 128 128 Note Off 128 65 64 
3552 144 144 Note On 144 64 64 
3584 128 128 Note Off 128 60 64 
3616 128 128 Note Off 128 64 64 
3648 144 144 Note On 144 65 64 
3744 144 144 Note On 144 60 64 
3744 144 144 Note On 144 57 64 
3776 128 128 Note Off 128 65 64 
3808 128 128 Note Off 128 60 64 
3808 128 128 Note Off 128 57 64 
3840 144 144 Note On 144 65 64 
3840 144 144 Note On 144 60 64 
3840 144 144 Note On 144 57 64 
3904 128 128 Note Off 128 65 64 
3936 144 144 Note On 144 64 64 
3968 128 128 Note Off 128 60 64 
3968 128 128 Note Off 128 57 64 
3968 128 128 Note Off 128 64 64 
3984 144 144 Note On 144 62 64 
4016 128 128 Note Off 128 62 64 
4032 144 144 Note On 144 67 64 
4032 144 144 Note On 144 60 64 
4096 128 128 Note Off 128 67 64 
4128 144 144 Note On 144 65 64 
4160 128 128 Note Off 128 60 64 
4160 128 128 Note Off 128 65 64 
4176 144 144 Note On 144 64 64 
4208 128 128 Note Off 128 64 64 
4224 144 144 Note On 144 65 64 
4224 144 144 Note On 144 60 64 
4224 144 144 Note On 144 53 64 
4256 128 128 Note Off 128 65 64 
4272 144 144 Note On 144 64 64 
4288 128 128 Note Off 128 60 64 
4288 128 128 Note Off 128 53 64 
4304 128 128 Note Off 128 64 64 
4320 144 144 Note On 144 62 64 
4320 144 144 Note On 144 59 64 
4320 144 144 Note On 144 55 64 
4384 128 128 Note Off 128 62 64 
4384 128 128 Note Off 128 59 64 
4384 128 128 Note Off 128 55 64 
4416 144 144 Note On 144 60 64 
4416 144 144 Note On 144 55 64 
4480 128 128 Note Off 128 60 64 
4480 128 128 Note Off 128 55 64 
4608 144 144 Note On 144 65 64 
4608 144 144 Note On 144 69 64 
4608 144 144 Note On 144 72 64 
4672 128 128 Note Off 128 72 64 
4704 144 144 Note On 144 72 64 
4736 128 128 Note Off 128 65 64 
4736 128 128 Note Off 128 69 64 
4736 128 128 Note Off 128 72 64 
4752 144 144 Note On 144 74 64 
4784 128 128 Note Off 128 74 64 
4800 144 144 Note On 144 72 64 
4800 144 144 Note On 144 69 64 
4800 144 144 Note On 144 64 64 
4864 128 128 Note Off 128 72 64 
4896 144 144 Note On 144 72 64 
4928 128 128 Note Off 128 69 64 
4928 128 128 Note Off 128 64 64 
4928 128 128 Note Off 128 72 64 
4944 144 144 Note On 144 74 64 
4976 128 128 Note Off 128 74 64 
4992 144 144 Note On 144 75 64 
4992 144 144 Note On 144 72 64 
4992 144 144 Note On 144 69 64 
4992 144 144 Note On 144 63 64 
5024 128 128 Note Off 128 75 64 
5040 144 144 Note On 144 74 64 
5056 128 128 Note Off 128 72 64 
5056 128 128 Note Off 128 69 64 
5056 128 128 Note Off 128 63 64 
5072 128 128 Note Off 128 74 64 
5088 144 144 Note On 144 72 64 
5088 144 144 Note On 144 69 64 
5088 144 144 Note On 144 62 64 
5152 128 128 Note Off 128 72 64 
5152 128 128 Note Off 128 69 64 
5152 128 128 Note Off 128 62 64 
5184 144 144 Note On 144 71 64 
5184 144 144 Note On 144 67 64 
5184 144 144 Note On 144 62 64 
5312 128 128 Note Off 128 71 64 
5312 128 128 Note Off 128 67 64 
5312 128 128 Note Off 128 62 64 
5376 144 144 Note On 144 64 64 
5376 144 144 Note On 144 65 64 
5376 144 144 Note On 144 60 64 
5376 144 144 Note On 144 57 64 
5440 128 128 Note Off 128 64 64 
5440 128 128 Note Off 128 65 64 
5472 144 144 Note On 144 65 64 
5504 128 128 Note Off 128 60 64 
5504 128 128 Note Off 128 57 64 
5504 128 128 Note Off 128 65 64 
5520 144 144 Note On 144 67 64 
5552 128 128 Note Off 128 67 64 
5568 144 144 Note On 144 69 64 
5568 144 144 Note On 144 62 64 
5568 144 144 Note On 144 57 64 
5632 128 128 Note Off 128 69 64 
5664 144 144 Note On 144 67 64 
5696 128 128 Note Off 128 62 64 
5696 128 128 Note Off 128 57 64 
5696 128 128 Note Off 128 67 64 
5712 144 144 Note On 144 65 64 
5744 128 128 Note Off 128 65 64 
5760 144 144 Note On 144 64 64 
5760 144 144 Note On 144 59 64 
5760 144 144 Note On 144 55 64 
5792 128 128 Note Off 128 64 64 
5808 144 144 Note On 144 65 64 
5824 128 128 Note Off 128 59 64 
5824 128 128 Note Off 128 55 64 
5840 128 128 Note Off 128 65 64 
5856 144 144 Note On 144 67 64 
5920 128 128 Note Off 128 67 64 
5952 144 144 Note On 144 67 64 
6048 144 144 Note On 144 64 64 
6048 144 144 Note On 144 59 64 
6080 128 128 Note Off 128 67 64 
6112 128 128 Note Off 128 64 64 
6112 128 128 Note Off 128 59 64 
6144 144 144 Note On 144 72 64 
6144 144 144 Note On 144 69 64 
6144 144 144 Note On 144 64 64 
6208 128 128 Note Off 128 72 64 
6240 144 144 Note On 144 71 64 
6272 128 128 Note Off 128 69 64 
6272 128 128 Note Off 128 64 64 
6272 128 128 Note Off 128 71 64 
6288 144 144 Note On 144 72 64 
6320 128 128 Note Off 128 72 64 
6336 144 144 Note On 144 76 64 
6336 144 144 Note On 144 72 64 
6336 144 144 Note On 144 69 64 
6336 144 144 Note On 144 65 64 
6400 128 128 Note Off 128 76 64 
6400 128 128 Note Off 128 72 64 
6432 144 144 Note On 144 76 64 
6464 128 128 Note Off 128 69 64 
6464 128 128 Note Off 128 65 64 
6464 128 128 Note Off 128 76 64 
6480 144 144 Note On 144 74 64 
6512 128 128 Note Off 128 74 64 
6528 144 144 Note On 144 72 64 
6528 144 144 Note On 144 69 64 
6528 144 144 Note On 144 65 64 
6560 128 128 Note Off 128 72 64 
6576 144 144 Note On 144 71 64 
6592 128 128 Note Off 128 69 64 
6608 128 128 Note Off 128 71 64 
6624 144 144 Note On 144 69 64 
6656 128 128 Note Off 128 65 64 
6688 128 128 Note Off 128 69 64 
6720 144 144 Note On 144 67 64 
6816 144 144 Note On 144 64 64 
6816 144 144 Note On 144 59 64 
6848 128 128 Note Off 128 67 64 
6880 128 128 Note Off 128 64 64 
6880 128 128 Note Off 128 59 64 
6912 144 144 Note On 144 66 64 
6912 144 144 Note On 144 60 64 
6976 128 128 Note Off 128 66 64 
7008 144 144 Note On 144 62 64 
7040 128 128 Note Off 128 62 64 
7056 144 144 Note On 144 64 64 
7088 128 128 Note Off 128 64 64 
7104 144 144 Note On 144 65 64 
7168 128 128 Note Off 128 65 64 
7169 128 128 Note Off 128 60 64 
7200 144 144 Note On 144 69 64 
7264 128 128 Note Off 128 69 64 
7296 144 144 Note On 144 74 64 
7392 144 144 Note On 144 72 64 
7392 144 144 Note On 144 69 64 
7392 144 144 Note On 144 66 64 
7424 128 128 Note Off 128 74 64 
7456 128 128 Note Off 128 72 64 
7456 128 128 Note Off 128 69 64 
7456 128 128 Note Off 128 66 64 
7488 144 144 Note On 144 72 64 
7584 144 144 Note On 144 69 64 
7584 144 144 Note On 144 65 64 
7616 128 128 Note Off 128 72 64 
7648 128 128 Note Off 128 69 64 
7648 128 128 Note Off 128 65 64 
7680 144 144 Note On 144 74 64 
7776 144 144 Note On 144 72 64 
7776 144 144 Note On 144 68 64 
7776 144 144 Note On 144 65 64 
7840 128 128 Note Off 128 72 64 
7840 128 128 Note Off 128 68 64 
7840 128 128 Note Off 128 65 64 
7872 128 128 Note Off 128 74 64 
7872 144 144 Note On 144 65 64 
7872 144 144 Note On 144 67 64 
7872 144 144 Note On 144 71 64 
7936 128 128 Note Off 128 65 64 
7936 128 128 Note Off 128 67 64 
7936 128 128 Note Off 128 71 64 
8064 144 144 Note On 144 67 64 
8096 128 128 Note Off 128 67 64 
8112 144 144 Note On 144 69 64 
8144 128 128 Note Off 128 69 64 
8160 144 144 Note On 144 65 64 
8192 128 128 Note Off 128 65 64 
8208 144 144 Note On 144 67 64 
8240 128 128 Note Off 128 67 64 
8256 144 144 Note On 144 64 64 
8288 128 128 Note Off 128 64 64 
8304 144 144 Note On 144 65 64 
8336 128 128 Note Off 128 65 64 
8352 144 144 Note On 144 62 64 
8416 128 128 Note Off 128 62 64 
8448 144 144 Note On 144 67 64 
8448 144 144 Note On 144 64 64 
8512 128 128 Note Off 128 67 64 
8512 128 128 Note Off 128 64 64 
8544 144 144 Note On 144 60 64 
8608 128 128 Note Off 128 60 64 
8640 144 144 Note On 144 67 64 
8640 144 144 Note On 144 64 64 
8704 128 128 Note Off 128 67 64 
8704 128 128 Note Off 128 64 64 
8736 144 144 Note On 144 60 64 
8800 128 128 Note Off 128 60 64 
8832 144 144 Note On 144 67 64 
8832 144 144 Note On 144 60 64 
8864 128 128 Note Off 128 67 64 
8880 144 144 Note On 144 65 64 
8912 128 128 Note Off 128 65 64 
8928 144 144 Note On 144 64 64 
8960 128 128 Note Off 128 60 64 
8992 128 128 Note Off 128 64 64 
9024 144 144 Note On 144 65 64 
9120 144 144 Note On 144 60 64 
9120 144 144 Note On 144 57 64 
9152 128 128 Note Off 128 65 64 
9184 128 128 Note Off 128 60 64 
9184 128 128 Note Off 128 57 64 
9216 144 144 Note On 144 65 64 
9216 144 144 Note On 144 60 64 
9216 144 144 Note On 144 57 64 
9280 128 128 Note Off 128 65 64 
9312 144 144 Note On 144 64 64 
9344 128 128 Note Off 128 60 64 
9344 128 128 Note Off 128 57 64 
9344 128 128 Note Off 128 64 64 
9360 144 144 Note On 144 62 64 
9392 128 128 Note Off 128 62 64 
9408 144 144 Note On 144 67 64 
9408 144 144 Note On 144 60 64 
9472 128 128 Note Off 128 67 64 
9504 144 144 Note On 144 65 64 
9536 128 128 Note Off 128 60 64 
9568 128 128 Note Off 128 65 64 
9600 144 144 Note On 144 64 64 
9600 144 144 Note On 144 57 64 
9632 128 128 Note Off 128 64 64 
9648 144 144 Note On 144 62 64 
9680 128 128 Note Off 128 62 64 
9696 144 144 Note On 144 60 64 
9728 128 128 Note Off 128 57 64 
9760 128 128 Note Off 128 60 64 
9792 144 144 Note On 144 62 64 
9888 144 144 Note On 144 59 64 
9888 144 144 Note On 144 55 64 
9920 128 128 Note Off 128 62 64 
9952 128 128 Note Off 128 59 64 
9952 128 128 Note Off 128 55 64 
9984 144 144 Note On 144 67 64 
9984 144 144 Note On 144 64 64 
10048 128 128 Note Off 128 67 64 
10048 128 128 Note Off 128 64 64 
10080 144 144 Note On 144 60 64 
10144 128 128 Note Off 128 60 64 
10176 144 144 Note On 144 67 64 
10176 144 144 Note On 144 64 64 
10240 128 128 Note Off 128 67 64 
10240 128 128 Note Off 128 64 64 
10272 144 144 Note On 144 60 64 
10336 128 128 Note Off 128 60 64 
10368 144 144 Note On 144 67 64 
10368 144 144 Note On 144 60 64 
10400 128 128 Note Off 128 67 64 
10416 144 144 Note On 144 65 64 
10448 128 128 Note Off 128 65 64 
10464 144 144 Note On 144 64 64 
10496 128 128 Note Off 128 60 64 
10528 128 128 Note Off 128 64 64 
10560 144 144 Note On 144 65 64 
10656 144 144 Note On 144 60 64 
10656 144 144 Note On 144 57 64 
10688 128 128 Note Off 128 65 64 
10720 128 128 Note Off 128 60 64 
10720 128 128 Note Off 128 57 64 
10752 144 144 Note On 144 67 64 
10752 144 144 Note On 144 64 64 
10816 128 128 Note Off 128 67 64 
10816 128 128 Note Off 128 64 64 
10848 144 144 Note On 144 60 64 
10912 128 128 Note Off 128 60 64 
10944 144 144 Note On 144 67 64 
10944 144 144 Note On 144 64 64 
11008 128 128 Note Off 128 67 64 
11008 128 128 Note Off 128 64 64 
11040 144 144 Note On 144 60 64 
11104 128 128 Note Off 128 60 64 
11136 144 144 Note On 144 67 64 
11136 144 144 Note On 144 64 64 
11200 128 128 Note Off 128 67 64 
11200 128 128 Note Off 128 64 64 
11232 144 144 Note On 144 60 64 
11296 128 128 Note Off 128 60 64 
11328 144 144 Note On 144 65 64 
11328 144 144 Note On 144 59 64 
11328 144 144 Note On 144 67 64 
11360 128 128 Note Off 128 67 64 
11376 144 144 Note On 144 69 64 
11408 128 128 Note Off 128 69 64 
11424 144 144 Note On 144 71 64 
11456 128 128 Note Off 128 65 64 
11456 128 128 Note Off 128 59 64 
11488 128 128 Note Off 128 71 64 
11520 144 144 Note On 144 72 64 
11520 144 144 Note On 144 67 64 
11520 144 144 Note On 144 64 64 
11584 128 128 Note Off 128 67 64 
11584 128 128 Note Off 128 64 64 
11616 144 144 Note On 144 60 64 
11680 128 128 Note Off 128 60 64 
11712 144 144 Note On 144 67 64 
11712 144 144 Note On 144 64 64 
11776 128 128 Note Off 128 67 64 
11776 128 128 Note Off 128 64 64 
11777 128 128 Note Off 128 72 64 
11808 144 144 Note On 144 60 64 
11872 128 128 Note Off 128 60 64 
11904 144 144 Note On 144 67 64 
11904 144 144 Note On 144 64 64 
11904 144 144 Note On 144 60 64 
11936 128 128 Note Off 128 67 64 
11936 128 128 Note Off 128 64 64 
11952 144 144 Note On 144 65 64 
11984 128 128 Note Off 128 65 64 
12000 144 144 Note On 144 64 64 
12032 128 128 Note Off 128 60 64 
12064 128 128 Note Off 128 64 64 
12096 144 144 Note On 144 67 64 
12096 144 144 Note On 144 65 64 
12096 144 144 Note On 144 59 64 
12128 128 128 Note Off 128 67 64 
12144 144 144 Note On 144 69 64 
12176 128 128 Note Off 128 69 64 
12192 144 144 Note On 144 71 64 
12224 128 128 Note Off 128 65 64 
12224 128 128 Note Off 128 59 64 
12256 128 128 Note Off 128 71 64 
12288 144 144 Note On 144 79 64 
12288 144 144 Note On 144 76 64 
12352 128 128 Note Off 128 79 64 
12352 128 128 Note Off 128 76 64 
12384 144 144 Note On 144 72 64 
12448 128 128 Note Off 128 72 64 
12480 144 144 Note On 144 79 64 
12480 144 144 Note On 144 76 64 
12544 128 128 Note Off 128 79 64 
12544 128 128 Note Off 128 76 64 
12576 144 144 Note On 144 72 64 
12640 128 128 Note Off 128 72 64 
12672 144 144 Note On 144 79 64 
12672 144 144 Note On 144 76 64 
12672 144 144 Note On 144 72 64 
12704 128 128 Note Off 128 79 64 
12704 128 128 Note Off 128 76 64 
12720 144 144 Note On 144 77 64 
12752 128 128 Note Off 128 77 64 
12768 144 144 Note On 144 76 64 
12800 128 128 Note Off 128 72 64 
12832 128 128 Note Off 128 76 64 
12864 144 144 Note On 144 79 64 
12864 144 144 Note On 144 77 64 
12864 144 144 Note On 144 71 64 
12896 128 128 Note Off 128 79 64 
12912 144 144 Note On 144 81 64 
12944 128 128 Note Off 128 81 64 
12960 144 144 Note On 144 83 64 
12992 128 128 Note Off 128 77 64 
12992 128 128 Note Off 128 71 64 
13024 128 128 Note Off 128 83 64 
13056 144 144 Note On 144 72 64 
13056 144 144 Note On 144 67 64 
13056 144 144 Note On 144 64 64 
13120 128 128 Note Off 128 67 64 
13120 128 128 Note Off 128 64 64 
13152 144 144 Note On 144 60 64 
13216 128 128 Note Off 128 60 64 
13248 144 144 Note On 144 67 64 
13248 144 144 Note On 144 64 64 
13312 128 128 Note Off 128 67 64 
13312 128 128 Note Off 128 64 64 
13313 128 128 Note Off 128 72 64 
13344 144 144 Note On 144 60 64 
13408 128 128 Note Off 128 60 64 
13440 144 144 Note On 144 67 64 
13440 144 144 Note On 144 64 64 
13440 144 144 Note On 144 60 64 
13472 128 128 Note Off 128 67 64 
13472 128 128 Note Off 128 64 64 
13488 144 144 Note On 144 65 64 
13520 128 128 Note Off 128 65 64 
13536 144 144 Note On 144 64 64 
13568 128 128 Note Off 128 60 64 
13600 128 128 Note Off 128 64 64 
13632 144 144 Note On 144 67 64 
13632 144 144 Note On 144 65 64 
13632 144 144 Note On 144 59 64 
13664 128 128 Note Off 128 67 64 
13680 144 144 Note On 144 69 64 
13712 128 128 Note Off 128 69 64 
13728 144 144 Note On 144 71 64 
13760 128 128 Note Off 128 65 64 
13760 128 128 Note Off 128 59 64 
13792 128 128 Note Off 128 71 64 
13824 144 144 Note On 144 72 64 
14081 128 128 Note Off 128 72 64 
14081 255 240 Meta 255 47 0 

Track 2 has 159 events
0 177 176 Controller 177 0 0 
0 193 192 Timbre 193 58 
0 255 240 Meta 255 88 4 4 2 96 8 
0 255 240 Meta Tempo 255 81 3 7 161 32 
0 145 144 Note On 145 48 64 
128 129 128 Note Off 129 48 64 
192 145 144 Note On 145 46 64 
320 129 128 Note Off 129 46 64 
384 145 144 Note On 145 45 64 
512 129 128 Note Off 129 45 64 
576 145 144 Note On 145 43 64 
704 129 128 Note Off 129 43 64 
768 145 144 Note On 145 48 64 
896 129 128 Note Off 129 48 64 
960 145 144 Note On 145 46 64 
1088 129 128 Note Off 129 46 64 
1152 145 144 Note On 145 44 64 
1280 129 128 Note Off 129 44 64 
1344 145 144 Note On 145 43 64 
1472 129 128 Note Off 129 43 64 
1536 145 144 Note On 145 48 64 
1664 129 128 Note Off 129 48 64 
1728 145 144 Note On 145 43 64 
1856 129 128 Note Off 129 43 64 
1920 145 144 Note On 145 40 64 
2048 129 128 Note Off 129 40 64 
2112 145 144 Note On 145 41 64 
2240 129 128 Note Off 129 41 64 
2304 145 144 Note On 145 38 64 
2432 129 128 Note Off 129 38 64 
2496 145 144 Note On 145 40 64 
2624 129 128 Note Off 129 40 64 
2688 145 144 Note On 145 45 64 
2816 129 128 Note Off 129 45 64 
2880 145 144 Note On 145 43 64 
3008 129 128 Note Off 129 43 64 
3072 145 144 Note On 145 48 64 
3200 129 128 Note Off 129 48 64 
3264 145 144 Note On 145 43 64 
3392 129 128 Note Off 129 43 64 
3456 145 144 Note On 145 40 64 
3584 129 128 Note Off 129 40 64 
3648 145 144 Note On 145 41 64 
3776 129 128 Note Off 129 41 64 
3840 145 144 Note On 145 38 64 
3968 129 128 Note Off 129 38 64 
4032 145 144 Note On 145 40 64 
4160 129 128 Note Off 129 40 64 
4224 145 144 Note On 145 45 64 
4288 129 128 Note Off 129 45 64 
4320 145 144 Note On 145 43 64 
4384 129 128 Note Off 129 43 64 
4416 145 144 Note On 145 48 64 
4480 129 128 Note Off 129 48 64 
4512 145 144 Note On 145 36 64 
4576 129 128 Note Off 129 36 64 
4608 145 144 Note On 145 41 64 
4736 129 128 Note Off 129 41 64 
4800 145 144 Note On 145 41 64 
4928 129 128 Note Off 129 41 64 
4992 145 144 Note On 145 41 64 
5056 129 128 Note Off 129 41 64 
5088 145 144 Note On 145 35 64 
5152 129 128 Note Off 129 35 64 
5184 145 144 Note On 145 40 64 
5248 129 128 Note Off 129 40 64 
5280 145 144 Note On 145 35 64 
5344 129 128 Note Off 129 35 64 
5376 145 144 Note On 145 41 64 
5504 129 128 Note Off 129 41 64 
5568 145 144 Note On 145 35 64 
5696 129 128 Note Off 129 35 64 
5760 145 144 Note On 145 40 64 
5888 129 128 Note Off 129 40 64 
5952 145 144 Note On 145 40 64 
6080 129 128 Note Off 129 40 64 
6144 145 144 Note On 145 41 64 
6272 129 128 Note Off 129 41 64 
6336 145 144 Note On 145 40 64 
6464 129 128 Note Off 129 40 64 
6528 145 144 Note On 145 38 64 
6656 129 128 Note Off 129 38 64 
6720 145 144 Note On 145 40 64 
6848 129 128 Note Off 129 40 64 
6912 145 144 Note On 145 38 64 
7169 129 128 Note Off 129 38 64 
7392 145 144 Note On 145 38 64 
7456 129 128 Note Off 129 38 64 
7584 145 144 Note On 145 38 64 
7648 129 128 Note Off 129 38 64 
7776 145 144 Note On 145 38 64 
7840 129 128 Note Off 129 38 64 
7872 145 144 Note On 145 43 64 
7936 129 128 Note Off 129 43 64 
8064 145 144 Note On 145 59 64 
8064 145 144 Note On 145 53 64 
8064 145 144 Note On 145 43 64 
8096 129 128 Note Off 129 59 64 
8096 129 128 Note Off 129 53 64 
8096 129 128 Note Off 129 43 64 
8448 145 144 Note On 145 48 64 
8576 129 128 Note Off 129 48 64 
8640 145 144 Note On 145 43 64 
8768 129 128 Note Off 129 43 64 
8832 145 144 Note On 145 40 64 
8960 129 128 Note Off 129 40 64 
9024 145 144 Note On 145 41 64 
9152 129 128 Note Off 129 41 64 
9216 145 144 Note On 145 38 64 
9344 129 128 Note Off 129 38 64 
9408 145 144 Note On 145 40 64 
9536 129 128 Note Off 129 40 64 
9600 145 144 Note On 145 45 64 
9728 129 128 Note Off 129 45 64 
9792 145 144 Note On 145 43 64 
9920 129 128 Note Off 129 43 64 
9984 145 144 Note On 145 48 64 
10112 129 128 Note Off 129 48 64 
10176 145 144 Note On 145 43 64 
10304 129 128 Note Off 129 43 64 
10368 145 144 Note On 145 40 64 
10496 129 128 Note Off 129 40 64 
10560 145 144 Note On 145 41 64 
10688 129 128 Note Off 129 41 64 
10752 145 144 Note On 145 40 64 
10880 129 128 Note Off 129 40 64 
10944 145 144 Note On 145 38 64 
11072 129 128 Note Off 129 38 64 
11136 145 144 Note On 145 36 64 
11264 129 128 Note Off 129 36 64 
11328 145 144 Note On 145 43 64 
11456 129 128 Note Off 129 43 64 
11520 145 144 Note On 145 48 64 
11648 129 128 Note Off 129 48 64 
11712 145 144 Note On 145 46 64 
11840 129 128 Note Off 129 46 64 
11904 145 144 Note On 145 45 64 
12032 129 128 Note Off 129 45 64 
12096 145 144 Note On 145 43 64 
12224 129 128 Note Off 129 43 64 
12288 145 144 Note On 145 48 64 
12416 129 128 Note Off 129 48 64 
12480 145 144 Note On 145 46 64 
12608 129 128 Note Off 129 46 64 
12672 145 144 Note On 145 44 64 
12800 129 128 Note Off 129 44 64 
12864 145 144 Note On 145 43 64 
12992 129 128 Note Off 129 43 64 
13056 145 144 Note On 145 48 64 
13184 129 128 Note Off 129 48 64 
13248 145 144 Note On 145 46 64 
13376 129 128 Note Off 129 46 64 
13440 145 144 Note On 145 44 64 
13568 129 128 Note Off 129 44 64 
13632 145 144 Note On 145 43 64 
13760 129 128 Note Off 129 43 64 
13824 145 144 Note On 145 48 64 
14081 129 128 Note Off 129 48 64 
14081 255 240 Meta 255 47 0 

Track 3 has 255 events
0 178 176 Controller 178 0 0 
0 194 192 Timbre 194 22 
0 255 240 Meta 255 88 4 4 2 96 8 
0 255 240 Meta Tempo 255 81 3 7 161 32 
1536 146 144 Note On 146 67 64 
1600 130 128 Note Off 130 67 64 
1632 146 144 Note On 146 60 64 
1696 130 128 Note Off 130 60 64 
1728 146 144 Note On 146 67 64 
1792 130 128 Note Off 130 67 64 
1824 146 144 Note On 146 60 64 
1888 130 128 Note Off 130 60 64 
1920 146 144 Note On 146 67 64 
1952 130 128 Note Off 130 67 64 
1968 146 144 Note On 146 65 64 
2000 130 128 Note Off 130 65 64 
2016 146 144 Note On 146 64 64 
2080 130 128 Note Off 130 64 64 
2112 146 144 Note On 146 65 64 
2240 130 128 Note Off 130 65 64 
2304 146 144 Note On 146 65 64 
2368 130 128 Note Off 130 65 64 
2400 146 144 Note On 146 64 64 
2432 130 128 Note Off 130 64 64 
2448 146 144 Note On 146 62 64 
2480 130 128 Note Off 130 62 64 
2496 146 144 Note On 146 67 64 
2560 130 128 Note Off 130 67 64 
2592 146 144 Note On 146 65 64 
2656 130 128 Note Off 130 65 64 
2688 146 144 Note On 146 64 64 
2720 130 128 Note Off 130 64 64 
2736 146 144 Note On 146 62 64 
2768 130 128 Note Off 130 62 64 
2784 146 144 Note On 146 60 64 
2848 130 128 Note Off 130 60 64 
2880 146 144 Note On 146 62 64 
3008 130 128 Note Off 130 62 64 
3072 146 144 Note On 146 67 64 
3136 130 128 Note Off 130 67 64 
3168 146 144 Note On 146 60 64 
3232 130 128 Note Off 130 60 64 
3264 146 144 Note On 146 67 64 
3328 130 128 Note Off 130 67 64 
3360 146 144 Note On 146 60 64 
3424 130 128 Note Off 130 60 64 
3456 146 144 Note On 146 67 64 
3488 130 128 Note Off 130 67 64 
3504 146 144 Note On 146 65 64 
3536 130 128 Note Off 130 65 64 
3552 146 144 Note On 146 64 64 
3616 130 128 Note Off 130 64 64 
3648 146 144 Note On 146 65 64 
3776 130 128 Note Off 130 65 64 
3840 146 144 Note On 146 65 64 
3904 130 128 Note Off 130 65 64 
3936 146 144 Note On 146 64 64 
3968 130 128 Note Off 130 64 64 
3984 146 144 Note On 146 62 64 
4016 130 128 Note Off 130 62 64 
4032 146 144 Note On 146 67 64 
4096 130 128 Note Off 130 67 64 
4128 146 144 Note On 146 65 64 
4160 130 128 Note Off 130 65 64 
4176 146 144 Note On 146 64 64 
4208 130 128 Note Off 130 64 64 
4224 146 144 Note On 146 65 64 
4256 130 128 Note Off 130 65 64 
4272 146 144 Note On 146 64 64 
4304 130 128 Note Off 130 64 64 
4320 146 144 Note On 146 62 64 
4384 130 128 Note Off 130 62 64 
4416 146 144 Note On 146 60 64 
4480 130 128 Note Off 130 60 64 
4608 146 144 Note On 146 72 64 
4672 130 128 Note Off 130 72 64 
4704 146 144 Note On 146 72 64 
4736 130 128 Note Off 130 72 64 
4752 146 144 Note On 146 74 64 
4784 130 128 Note Off 130 74 64 
4800 146 144 Note On 146 72 64 
4864 130 128 Note Off 130 72 64 
4896 146 144 Note On 146 72 64 
4928 130 128 Note Off 130 72 64 
4944 146 144 Note On 146 74 64 
4976 130 128 Note Off 130 74 64 
4992 146 144 Note On 146 76 64 
5024 130 128 Note Off 130 76 64 
5040 146 144 Note On 146 74 64 
5072 130 128 Note Off 130 74 64 
5088 146 144 Note On 146 72 64 
5152 130 128 Note Off 130 72 64 
5184 146 144 Note On 146 71 64 
5312 130 128 Note Off 130 71 64 
5376 146 144 Note On 146 65 64 
5440 130 128 Note Off 130 65 64 
5472 146 144 Note On 146 65 64 
5504 130 128 Note Off 130 65 64 
5520 146 144 Note On 146 67 64 
5552 130 128 Note Off 130 67 64 
5568 146 144 Note On 146 69 64 
5632 130 128 Note Off 130 69 64 
5664 146 144 Note On 146 67 64 
5696 130 128 Note Off 130 67 64 
5712 146 144 Note On 146 65 64 
5744 130 128 Note Off 130 65 64 
5760 146 144 Note On 146 64 64 
5792 130 128 Note Off 130 64 64 
5808 146 144 Note On 146 65 64 
5840 130 128 Note Off 130 65 64 
5856 146 144 Note On 146 67 64 
5920 130 128 Note Off 130 67 64 
5952 146 144 Note On 146 67 64 
6080 130 128 Note Off 130 67 64 
6144 146 144 Note On 146 72 64 
6208 130 128 Note Off 130 72 64 
6240 146 144 Note On 146 71 64 
6272 130 128 Note Off 130 71 64 
6288 146 144 Note On 146 72 64 
6320 130 128 Note Off 130 72 64 
6336 146 144 Note On 146 76 64 
6400 130 128 Note Off 130 76 64 
6432 146 144 Note On 146 76 64 
6464 130 128 Note Off 130 76 64 
6480 146 144 Note On 146 74 64 
6512 130 128 Note Off 130 74 64 
6528 146 144 Note On 146 72 64 
6560 130 128 Note Off 130 72 64 
6576 146 144 Note On 146 71 64 
6608 130 128 Note Off 130 71 64 
6624 146 144 Note On 146 69 64 
6688 130 128 Note Off 130 69 64 
6720 146 144 Note On 146 67 64 
6848 130 128 Note Off 130 67 64 
6912 146 144 Note On 146 66 64 
6976 130 128 Note Off 130 66 64 
7008 146 144 Note On 146 62 64 
7040 130 128 Note Off 130 62 64 
7056 146 144 Note On 146 64 64 
7088 130 128 Note Off 130 64 64 
7104 146 144 Note On 146 65 64 
7168 130 128 Note Off 130 65 64 
7200 146 144 Note On 146 69 64 
7264 130 128 Note Off 130 69 64 
7296 146 144 Note On 146 74 64 
7424 130 128 Note Off 130 74 64 
7488 146 144 Note On 146 72 64 
7616 130 128 Note Off 130 72 64 
7680 146 144 Note On 146 74 64 
7872 130 128 Note Off 130 74 64 
8064 146 144 Note On 146 67 64 
8096 130 128 Note Off 130 67 64 
8112 146 144 Note On 146 69 64 
8144 130 128 Note Off 130 69 64 
8160 146 144 Note On 146 65 64 
8192 130 128 Note Off 130 65 64 
8208 146 144 Note On 146 67 64 
8240 130 128 Note Off 130 67 64 
8256 146 144 Note On 146 64 64 
8288 130 128 Note Off 130 64 64 
8304 146 144 Note On 146 65 64 
8336 130 128 Note Off 130 65 64 
8352 146 144 Note On 146 62 64 
8416 130 128 Note Off 130 62 64 
8448 146 144 Note On 146 67 64 
8512 130 128 Note Off 130 67 64 
8544 146 144 Note On 146 60 64 
8608 130 128 Note Off 130 60 64 
8640 146 144 Note On 146 67 64 
8704 130 128 Note Off 130 67 64 
8736 146 144 Note On 146 60 64 
8800 130 128 Note Off 130 60 64 
8832 146 144 Note On 146 67 64 
8864 130 128 Note Off 130 67 64 
8880 146 144 Note On 146 65 64 
8912 130 128 Note Off 130 65 64 
8928 146 144 Note On 146 64 64 
8992 130 128 Note Off 130 64 64 
9024 146 144 Note On 146 65 64 
9152 130 128 Note Off 130 65 64 
9216 146 144 Note On 146 65 64 
9280 130 128 Note Off 130 65 64 
9312 146 144 Note On 146 64 64 
9344 130 128 Note Off 130 64 64 
9360 146 144 Note On 146 62 64 
9392 130 128 Note Off 130 62 64 
9408 146 144 Note On 146 67 64 
9472 130 128 Note Off 130 67 64 
9504 146 144 Note On 146 65 64 
9568 130 128 Note Off 130 65 64 
9600 146 144 Note On 146 64 64 
9632 130 128 Note Off 130 64 64 
9648 146 144 Note On 146 62 64 
9680 130 128 Note Off 130 62 64 
9696 146 144 Note On 146 60 64 
9760 130 128 Note Off 130 60 64 
9792 146 144 Note On 146 62 64 
9920 130 128 Note Off 130 62 64 
9984 146 144 Note On 146 67 64 
10048 130 128 Note Off 130 67 64 
10080 146 144 Note On 146 60 64 
10144 130 128 Note Off 130 60 64 
10176 146 144 Note On 146 67 64 
10240 130 128 Note Off 130 67 64 
10272 146 144 Note On 146 60 64 
10336 130 128 Note Off 130 60 64 
10368 146 144 Note On 146 67 64 
10400 130 128 Note Off 130 67 64 
10416 146 144 Note On 146 65 64 
10448 130 128 Note Off 130 65 64 
10464 146 144 Note On 146 64 64 
10528 130 128 Note Off 130 64 64 
10560 146 144 Note On 146 65 64 
10688 130 128 Note Off 130 65 64 
10752 146 144 Note On 146 67 64 
10816 130 128 Note Off 130 67 64 
10848 146 144 Note On 146 60 64 
10912 130 128 Note Off 130 60 64 
10944 146 144 Note On 146 67 64 
11008 130 128 Note Off 130 67 64 
11040 146 144 Note On 146 60 64 
11104 130 128 Note Off 130 60 64 
11136 146 144 Note On 146 67 64 
11200 130 128 Note Off 130 67 64 
11232 146 144 Note On 146 60 64 
11296 130 128 Note Off 130 60 64 
11328 146 144 Note On 146 67 64 
11360 130 128 Note Off 130 67 64 
11376 146 144 Note On 146 69 64 
11408 130 128 Note Off 130 69 64 
11424 146 144 Note On 146 71 64 
11488 130 128 Note Off 130 71 64 
11520 146 144 Note On 146 72 64 
11904 146 144 Note On 146 72 64 
11905 130 128 Note Off 130 72 64 
12288 146 144 Note On 146 72 64 
12289 130 128 Note Off 130 72 64 
12672 146 144 Note On 146 72 64 
12673 130 128 Note Off 130 72 64 
13056 146 144 Note On 146 72 64 
13056 146 144 Note On 146 72 64 
13057 130 128 Note Off 130 72 64 
13440 146 144 Note On 146 72 64 
13441 130 128 Note Off 130 72 64 
13441 130 128 Note Off 130 72 64 
13568 130 128 Note Off 130 72 64 
13632 146 144 Note On 146 67 64 
13664 130 128 Note Off 130 67 64 
13680 146 144 Note On 146 69 64 
13712 130 128 Note Off 130 69 64 
13728 146 144 Note On 146 71 64 
13792 130 128 Note Off 130 71 64 
13824 146 144 Note On 146 72 64 
14081 130 128 Note Off 130 72 64 
14081 255 240 Meta 255 47 0 

Track 4 has 4 events
0 179 176 Controller 179 0 0 
0 255 240 Meta 255 88 4 4 2 96 8 
0 255 240 Meta Tempo 255 81 3 7 161 32 
0 255 240 Meta 255 47 0 

Track 5 has 4 events
0 180 176 Controller 180 0 0 
0 255 240 Meta 255 88 4 4 2 96 8 
0 255 240 Meta Tempo 255 81 3 7 161 32 
0 255 240 Meta 255 47 0 

Track 6 has 4 events
0 181 176 Controller 181 0 0 
0 255 240 Meta 255 88 4 4 2 96 8 
0 255 240 Meta Tempo 255 81 3 7 161 32 
0 255 240 Meta 255 47 0 
Fin midi_handler

